<?xml version="1.0" encoding="UTF-8" standalone="no"?>
<!-- Created with Inkscape (http://www.inkscape.org/) -->

<svg
   xmlns:dc="http://purl.org/dc/elements/1.1/"
   xmlns:cc="http://creativecommons.org/ns#"
   xmlns:rdf="http://www.w3.org/1999/02/22-rdf-syntax-ns#"
   xmlns:svg="http://www.w3.org/2000/svg"
   xmlns="http://www.w3.org/2000/svg"
   xmlns:xlink="http://www.w3.org/1999/xlink"
   xmlns:sodipodi="http://sodipodi.sourceforge.net/DTD/sodipodi-0.dtd"
   xmlns:inkscape="http://www.inkscape.org/namespaces/inkscape"
   width="371.05801"
   height="300"
   id="svg2"
   version="1.1"
   inkscape:version="0.48.5 r10040"
   sodipodi:docname="Fanta logo.svg">
  <defs
     id="defs4">
    <linearGradient
       id="linearGradient3861"
       spreadMethod="pad"
       gradientTransform="matrix(77.858597,-3.5539093,-3.5539093,-77.858581,368.76758,343.26904)"
       gradientUnits="userSpaceOnUse"
       y2="0"
       x2="1"
       y1="0"
       x1="0">
      <stop
         id="stop3863"
         offset="0"
         style="stop-opacity:1;stop-color:#30a14f" />
      <stop
         id="stop3865"
         offset="1"
         style="stop-opacity:1;stop-color:#1b6b47" />
    </linearGradient>
    <linearGradient
       inkscape:collect="always"
       xlink:href="#linearGradient3861"
       id="linearGradient4874"
       gradientUnits="userSpaceOnUse"
       gradientTransform="translate(540.51934,1234.0614)"
       x1="83.304703"
       y1="85.633301"
       x2="165.4404"
       y2="85.633301" />
  </defs>
  <sodipodi:namedview
     id="base"
     pagecolor="#ffffff"
     bordercolor="#666666"
     borderopacity="1.0"
     inkscape:pageopacity="0.0"
     inkscape:pageshadow="2"
     inkscape:zoom="0.125"
     inkscape:cx="150.02078"
     inkscape:cy="477.84299"
     inkscape:document-units="px"
     inkscape:current-layer="layer1"
     showgrid="false"
     fit-margin-top="0"
     fit-margin-left="0"
     fit-margin-right="0"
     fit-margin-bottom="0"
     inkscape:window-width="1366"
     inkscape:window-height="705"
     inkscape:window-x="-8"
     inkscape:window-y="-8"
     inkscape:window-maximized="1" />
  <metadata
     id="metadata7">
    <rdf:RDF>
      <cc:Work
         rdf:about="">
        <dc:format>image/svg+xml</dc:format>
        <dc:type
           rdf:resource="http://purl.org/dc/dcmitype/StillImage" />
        <dc:title />
      </cc:Work>
    </rdf:RDF>
  </metadata>
  <g
     inkscape:label="Layer 1"
     inkscape:groupmode="layer"
     id="layer1"
     transform="translate(0,-752.36218)">
    <g
       transform="translate(4.8800018e-8,-2.8552524e-6)"
       id="layer1-9"
       inkscape:label="Layer 1">
      <g
         transform="matrix(1.23976,0,0,1.2397591,-291.54428,550.79483)"
         id="g17653">
        <g
           id="g7082"
           transform="matrix(1.25,0,0,-1.25,253.61227,283.57215)">
          <path
             inkscape:connector-curvature="0"
             d="m 0,0 c 0,53.455 44.161,96.789 98.637,96.789 54.473,0 98.635,-43.334 98.635,-96.789 0,-53.459 -44.162,-96.797 -98.635,-96.797 C 44.161,-96.797 0,-53.459 0,0"
             style="fill:#ffffff;fill-opacity:1;fill-rule:nonzero;stroke:none"
             id="path7084" />
        </g>
        <g
           id="g7086"
           transform="matrix(1.25,0,0,-1.25,264.59497,283.98225)">
          <path
             inkscape:connector-curvature="0"
             d="m 0,0 c 0,48.768 40.439,88.302 90.323,88.302 49.89,0 90.323,-39.534 90.323,-88.302 0,-48.768 -40.433,-88.299 -90.323,-88.299 C 40.439,-88.299 0,-48.768 0,0"
             style="fill:#ff8300;fill-opacity:1;fill-rule:nonzero;stroke:none"
             id="path7088" />
        </g>
        <g
           id="g7126"
           transform="matrix(1.25,0,0,-1.25,311.00187,237.12865)">
          <path
             inkscape:connector-curvature="0"
             d="m 0,0 c -5.596,5.92 -17.269,6.8 -28.386,1.516 -5.01,-2.378 -30.108,-15.257 -32.074,-35.468 l -0.088,-1.23 c -0.084,-1.662 -0.124,-3.313 -0.124,-4.959 0,-30.133 13.943,-56.586 28.422,-69.955 7.96,-7.34 14.422,-11.721 20.095,-9.219 3.246,1.432 5.665,4.594 6.434,10.563 0.767,5.966 0.339,13.279 0.339,13.279 6.174,-7.854 16.643,-10.959 24.94,-9.152 6.733,1.464 14.567,6.892 15.861,15.343 l 0.285,1.875 c 0,0 2.119,-0.547 2.248,-0.582 4.282,-0.76 10.447,-0.584 13.813,2.414 1.064,0.951 1.802,2.082 2.183,3.371 l 0.509,1.688 1.67,-0.551 c 3.697,-1.213 7.564,-0.9 11.173,0.897 2.301,1.136 4.2,2.701 5.66,4.65 l 1.169,1.566 1.398,-1.357 c 1.322,-1.285 2.552,-2.166 3.861,-2.773 5.561,-2.592 12.276,-1.499 17.106,2.8 1.676,1.498 3.46,4.176 5.001,7.549 l 0.894,1.945 1.837,-1.406 0.977,-0.74 c 1.909,-1.107 5.066,-1.627 9.358,2.178 3.192,2.845 5.916,6.886 8.095,12.009 l 1.047,2.465 1.8,-1.982 c 1.094,-1.201 2.112,-2.109 3.197,-2.85 5.165,-3.504 12.115,-4.476 17.265,-2.412 1.574,0.633 2.969,1.475 4.259,2.567 l 0.998,0.849 1.082,-0.746 c 2.762,-1.894 6.219,-3.287 10.572,-4.252 4.446,-0.976 6.676,1.098 7.607,2.424 1.593,2.25 1.521,5.447 -0.175,8.139 -1.569,2.494 -0.813,5.277 0.758,10.384 1.097,3.551 2.34,7.571 2.654,12.352 0.94,14.285 -4.682,21.524 -9.565,25.082 -8.075,5.877 -18.341,5.029 -24.677,2.521 -0.009,-0.007 -1.396,-0.654 -1.396,-0.654 l -2.217,-1.112 -0.698,1.702 c -0.771,1.843 -1.972,3.409 -3.562,4.651 -3.416,2.657 -8.227,3.482 -14.305,2.468 l -1.032,-0.175 -0.63,0.847 C 105.503,22.274 97.398,19.63 95.156,18.497 l 0,-0.003 C 91.71,16.756 89.562,13.214 89.105,8.507 89.061,8.037 89.041,7.543 89.041,7.02 c 0,-1.391 0.16,-2.983 0.486,-4.832 l 0.319,-1.81 -4.118,-0.433 c -2.64,-0.267 -4.92,-0.491 -6.461,-0.813 -2.922,-0.614 -5.036,-2.539 -5.659,-5.156 0,-0.031 -0.148,-0.903 -0.148,-0.903 0.008,0.092 0.012,-1.061 0.012,-1.061 L 73.475,-9.525 71.954,-9.842 70.853,-9.96 C 65.627,-10.85 60.484,-14 56.846,-18.59 l -0.875,-1.104 -1.251,0.647 c -2.201,1.132 -4.162,1.443 -5.995,0.941 -2.159,-0.595 -3.867,-2.002 -4.813,-3.959 -0.359,-0.749 -0.604,-1.611 -0.727,-2.581 l -0.504,-3.999 -2.531,3.139 c -1.986,2.467 -4.265,4.458 -6.77,5.93 -8.321,4.886 -18.046,4.064 -24.371,1.666 C 5.813,-19.119 0.431,-21.022 -4.015,-26.356 3.401,-17.461 7.297,-7.727 0,0"
             style="fill:#ffffff;fill-opacity:1;fill-rule:nonzero;stroke:none"
             id="path7128" />
        </g>
        <g
           id="g7130"
           transform="matrix(1.25,0,0,-1.25,475.01357,242.13475)">
          <path
             inkscape:connector-curvature="0"
             d="m 0,0 c 0.118,3.53 -3.069,10.185 -17.101,6.131 -13.36,21.46 -25.166,12.383 -17.951,-5.684 -3.677,-1.094 -12.683,-1.481 -15.883,-2.146 -2.904,-0.617 -2.215,-3.313 0.24,-5.266 4.538,-3.618 16.099,-4.881 20.594,-5.34 6.397,-15.866 8.079,-35.07 6.243,-43.818 -1.042,-4.972 1.472,-4.115 3.922,-1.937 10.919,9.723 13.037,32.586 9.977,48.052 C -1.751,-6.616 -0.091,-3.027 0,0 M 10.085,0.205 C 5.637,-1.544 2.753,-4.203 0.8,-6.721 c -1.598,-2.043 0.072,-4.094 2.051,-3.598 4.472,1.09 11.656,1.042 12.784,-7.853 -15.112,-0.484 -21.074,-8.365 -21.114,-18.572 -0.04,-11.869 12.25,-15.65 18.396,-13.191 2.92,1.168 4.714,2.666 5.08,5.639 0.762,6.285 -7.019,6.218 -8.762,6.828 -6.019,2.105 -4.052,9.093 -0.248,11.015 3.363,1.7 8.073,-0.297 8.627,-5.437 1.065,-9.776 1.03,-16.277 15.116,-19.381 3.37,-0.748 3.036,1.758 2.189,3.104 -4.619,7.33 1.943,14.738 2.662,25.691 C 39.126,1.083 20.864,4.477 10.085,0.205 m -146.303,-43.148 c -2.389,4.494 -11.075,1.986 -19.853,-2.783 -2.195,4.217 -4.482,10.328 -4.482,10.328 0,0 15.053,7.311 24.981,22.235 10.729,16.144 -7.538,21.041 -21.903,14.221 -9.789,-4.637 -28.526,-16.488 -29.345,-32.45 -1.525,-29.809 11.86,-57.346 26.715,-71.068 13.726,-12.67 17.711,-10.62 17.631,1.457 -0.077,14.168 -2.735,27.447 -5.985,37.509 7.829,6.756 14.61,16.121 12.241,20.551 m 54.33,-32.961 c -0.133,2.201 -6.774,4.172 -6.307,17.696 0.198,4.97 0.163,11.976 -0.86,18.867 -3.492,23.729 -22.046,24.358 -31.4,20.819 -6.738,-2.554 -11.384,-8.147 -12.814,-11.136 -1.486,-3.103 -0.643,-6.285 3.09,-4.467 3.508,1.725 8.562,2.643 11.393,-0.546 2.639,-2.977 2.729,-6.911 3.293,-10.664 -1.936,-0.383 -7.647,-2.2 -9.621,-3.504 -8.63,-5.684 -19.046,-17.453 -11.177,-33.83 3.828,-7.981 12.815,-15.469 23.589,-13.12 5.865,1.274 13.429,6.61 12.056,14.936 -1.107,6.695 -11.198,6.373 -16.727,6.713 -11.8,0.728 -8.781,11.545 -4.837,15.523 5.112,5.157 11.324,1.266 13.037,-3.474 3.14,-8.713 6.335,-15.16 16.746,-17.018 4.722,-0.846 10.75,-0.113 10.539,3.205 m 8.048,52.283 c 3.926,12.502 21.648,20.84 35.751,1.954 13.319,-17.829 6.238,-40.458 0.095,-45.92 -6.782,-6.024 -17.491,-2.446 -17.193,7.599 0.208,7.281 2.926,8.598 4.907,20.604 1.806,11.009 -0.556,21.078 -10.616,18.179 -6.509,-1.867 -7.627,-10.628 -3.278,-21.925 5.099,-13.235 6.857,-24.245 -1.93,-28.612 -7.23,-3.601 -14.946,1.27 -15.542,12.66 -0.714,13.706 2.468,26.395 -0.847,34.235 -1.017,2.406 -1.12,5.304 1.299,5.974 2.282,0.623 5.572,-2.759 7.354,-4.748"
             style="fill:#134683;fill-opacity:1;fill-rule:nonzero;stroke:none"
             id="path7132" />
        </g>
        <g
           id="g7134"
           transform="matrix(1.25,0,0,-1.25,519.90007,294.48765)">
          <path
             inkscape:connector-curvature="0"
             d="M 0,0 C 0.015,3.217 2.629,5.816 5.844,5.803 9.058,5.793 11.66,3.18 11.648,-0.035 11.641,-3.25 9.021,-5.846 5.809,-5.838 2.591,-5.828 -0.005,-3.215 0,0"
             style="fill:#ffffff;fill-opacity:1;fill-rule:nonzero;stroke:none"
             id="path7136" />
        </g>
        <g
           id="g7138"
           transform="matrix(1.25,0,0,-1.25,526.56997,294.46815)">
          <path
             inkscape:connector-curvature="0"
             d="M 0,0 0.399,0.021 C 0.852,0.047 1.223,0.223 1.202,0.598 1.183,0.926 0.928,1.133 0.399,1.098 0.18,1.082 0.033,1.055 -0.059,1.023 L 0,0 z M 0.098,-2.021 -0.727,-2.072 -0.941,1.51 c 0.32,0.076 0.779,0.176 1.365,0.207 C 1.107,1.756 1.422,1.666 1.705,1.504 1.908,1.354 2.078,1.086 2.097,0.758 2.121,0.338 1.834,0.012 1.4,-0.143 L 1.406,-0.188 C 1.758,-0.275 1.973,-0.547 2.113,-1.027 2.252,-1.57 2.331,-1.791 2.428,-1.881 L 1.529,-1.932 C 1.408,-1.811 1.33,-1.514 1.193,-1.105 1.104,-0.709 0.874,-0.547 0.409,-0.578 L 0.02,-0.6 0.098,-2.021 z M 0.363,2.748 C -1.216,2.654 -2.327,1.295 -2.224,-0.291 -2.143,-1.889 -0.877,-3.1 0.748,-2.998 2.331,-2.928 3.422,-1.57 3.329,0.033 3.237,1.617 1.988,2.844 0.393,2.748 l -0.03,0 z M 0.369,3.475 C 2.436,3.592 4.125,2.09 4.245,0.088 4.365,-1.951 2.859,-3.625 0.775,-3.75 c -2.064,-0.119 -3.796,1.359 -3.92,3.402 -0.119,2 1.434,3.698 3.493,3.819 l 0.021,0.004 z"
             style="fill:#134683;fill-opacity:1;fill-rule:nonzero;stroke:none"
             id="path7140" />
        </g>
        <g
           id="g8106"
           transform="matrix(1.1467408,0.08197896,-0.08197896,1.1467408,-288.10893,-1339.9688)">
          <path
             style="fill:#30a14f;fill-opacity:1"
             inkscape:connector-curvature="0"
             d="m 706.52432,1319.7064 c 0,0 -11.49998,-6.25 -23.99998,5.5 0,0 -10.5,9.75 -20.25,10.75 0,0 1,-1.5 1,-5.75 0,0 -16,17.5 -39.75,-7.25 0,0 7,4.25 20,-13.25 0,0 14.25,-19.5 26.5,-13.25 0,0 -1.25,-3.5 -3,-4.5 0,0 32.5,-7 39.49998,27.75 z"
             id="path11-2" />
          <path
             style="fill:url(#linearGradient4874);fill-opacity:1"
             inkscape:connector-curvature="0"
             d="m 682.52434,1325.2064 c 10.874,-10.221 20.98598,-6.823 23.43598,-5.765 -5.83398,-8.43 -23.49698,-28.701 -46.18598,-5.485 -15.963,16.335 -29.852,12.41 -35.95,9.306 23.584,24.291 39.45,6.944 39.45,6.944 0,4.25 -1,5.75 -1,5.75 9.75,-1 20.25,-10.75 20.25,-10.75 z"
             id="path22-1-1" />
        </g>
      </g>
    </g>
  </g>
</svg>
