<?xml version="1.0" encoding="utf-8"?>
<!-- Generator: Adobe Illustrator 18.1.0, SVG Export Plug-In . SVG Version: 6.00 Build 0)  -->
<svg version="1.1" baseProfile="basic" id="Слой_1"
	 xmlns="http://www.w3.org/2000/svg" xmlns:xlink="http://www.w3.org/1999/xlink" x="0px" y="0px" viewBox="-140 82.5 559.1 431.7"
	 xml:space="preserve">
<g id="Слой_x0020_1">
	<path fill="#FFFFFF" d="M241.1,135.1c3.5,3.3,11,10.4,14.5,13.9c7.4,7.5,14.4,15.8,21.9,23c10.2,17.6,18.4,35.3,21.8,55.6
		c2.2,13.1,4.5,26.3,6,39.5c1.4,11.8,2.2,23.6,2.4,35.4c1.8,12.2,3,24.6,3.5,36.9c0.5,12.1,0.4,25-1.5,37c-0.6,3.7-1.8,7.9-2.8,11.6
		c-1.8,6.6-3.9,13.2-6.3,19.7c-2.6,6.9-4.8,13.9-9.1,19.9c-8.3,11.5-21.3,23.7-31.9,33.3c-8.2,7.5-16.8,14.8-25.8,21.4
		c-1,0.8-2.1,1.3-3.3,1.9c-7.1,3.6-15.5,6.4-23.1,8.8c-10.1,3.2-20.4,5.9-30.7,8.4c-9.6,2.3-14.5,4.5-24.3,6.2
		c-7.7,1.4-18.5,4.1-26.3,4.6c-20.4,2.1-44.2,2.6-64.7,0.6c-0.4,0-0.7-0.1-1.2-0.2c-30.4-6.9-60.1-23.6-85.6-41.5
		c-9.3-6.5-18.2-15.8-25.2-24.7c-2.9-3.5-5.8-6.8-8.1-10.8c-0.4-0.6-0.6-1.2-0.9-1.9l-21.6-67c-0.1-0.5-0.3-0.9-0.3-1.3l-15.5-92.1
		c-0.2-1.2-0.2-2.3,0.1-3.5l15.4-72.1c0.3-1.4,0.8-2.6,1.7-3.7c3-3.9,5.9-7.9,8.9-11.7l14.5-18.4c0.5-0.7,1.1-1.2,1.8-1.8l85.2-66.2
		c1-0.7,14.6-6.2,15.8-6.5c23.2-4.6,28.6-5.3,46.5-7c16.8,0.7,50.3,1.2,61.8,2.6c9.2,2.1,25.8,7.2,33.8,10.6
		c8.6,4.5,16.8,8.8,24,15.1C222.2,119.2,231.7,126.5,241.1,135.1z"/>
	<path fill="#F7941E" d="M49,98.5l-98,71.3l-14.5,18.4c-1.4,1.7-7.5,9.9-8.9,11.7L-87.8,272l15.5,92.1l21.6,67
		c2.1,3.5,4.8,6.6,7.4,9.8c6.2,7.8,14.9,16.8,23.3,22.9c23.7,16.4,53.9,32.1,83.7,38.9c25.8,2.5,49.4,0.2,59.6-0.9
		c24-1.5,83.9-16,103-25.7c0.7-0.4,1.5-0.7,1.9-1.1c18.4-13.6,43.8-37.2,54.5-52.1c10.1-14,17.2-44.3,17.7-47.9
		c3.3-21.1,1-51.3-2.1-71.6c-0.5-28-3.5-45.7-8.4-74.2c-3.2-18.9-12.7-36.4-22.3-53c-1.6-2.8-15.7-15.7-19.1-19.2
		c-6.6-6.6-6.2-6.9-14.3-14.1l-7.6-6.9c-1-0.9-1.7-1.2-2.9-2.2c-10.1-8.4-14.3-13.3-20.4-18.1c-4.2-3.1-9.9-6.7-19.2-11.7
		c-9.4-4.2-19.1-6.8-30.5-9.3c-10.5-1.5-22.2-2.5-34.2-3.4C95.7,89.5,71.3,92.4,49,98.5z"/>
	<path fill="#2D3092" d="M-42.6,176.7c4.3,4.1,8.6,8.3,14.1,12.8c-35.5,3.5-71.2,7.9-106.9,11.5c-2.1,0.2-4.9,1.9-4.6,4.1l28,199.5
		c0.1,1,0.5,1.5,1.8,2c57.5,23.8,178.4,72.6,233.5,95c24-1.5,83.9-16,103-25.7c1.6-0.8,2.8-1.6,3.8-2.3l7.4-5.9
		c14.4-11.8,31.6-24.1,45.8-35.7c2.6-2.1,4.8-3.9,7.4-5.9c2.4-1.9,4.9-3.9,7.5-5.8c11-8,26.4-20.8,38.4-29.9l45.7-35.8
		c5.2-4.2,10.5-7.9,15.2-11.8l-35.7-125.8c-0.3-1.1-1.5-1.6-3.5-1.5c-8.8,0.5-18,1-26.8,1.4c-1.2,0-1.8-1.1-2-2.4
		c-1.5-9-3.9-33.8-4.5-39.3c-0.3-3.2-2.5-3-3.8-2.9l-53.5,3.7c-5.5,0.4-51.1,3.1-59.6,3c-0.6,0-1.4,0.1-1.5-0.9
		c-0.3-2.1-0.6-7.1-1.1-9.4c-0.3-1.6-1.4-1.4-2.4-1.2l-14.7,1.9c-10.9,1.9-41.9,6.6-50.5,7.4c-1.4-2.1-5.4-10.9-7.3-13.8
		c-5.3-8.1-11.3-17.2-17.2-24.4c-1.8-2.2-3-3.9-4.7-6c-4.7-6-5.6-5.8-10-10.9c-1.3-1.4-3.7-3.3-5.5-4.6
		c-9.6-6.5-16.2-10.2-27.6-14.2L49,98.5c-3.9-1-16.2-1.3-24.5,0.2c-6.7,1.3-14.5,3.4-21.4,5.8c-20.3,7.1-38,14.7-57.5,22.7
		c-4.8,2-16,5.8-16.7,10.4c-0.6,4,7.5,14.8,9.3,17.5C-54.9,165.1-51.1,168.8-42.6,176.7z"/>
	<path fill="#70BF44" d="M17.4,110.8c19.3-3,41.6-1,56.1,8.9c17.4,11.9,14.1,9.4,25.5,21.3c6.9,7.2,15.9,24,20.2,33.5
		c3.5,7.8,6.2,16,9.7,23.8c5.8,12.8,11.7,23,16.8,33.7c0.9,2,2,3.5,2.9,5.4c1.8,3.6-0.5,6.8-2.7,4c-2.4-2.9-5.3-7.7-7.4-11
		c-1.2-1.9-9.4-14-11.6-17.6c-3.2-5.2-9.7-10.5-16-12.5c-7-2.2-9.9-1.5-17-0.7c-11.4,1-23.3,3.8-35.3,4.6
		c-9.7,0.7-28.6,0.6-38.9-2.6c-11.2-3.4-24.6-10.6-33.8-17.3c-8.3-6-11.7-9.6-18.5-15.3c-2.2-1.8-5-4.6-6.9-6.5
		c-6.4-6.7-12.8-12.9-18.7-19.8c-0.9-1-0.6-1.9,0.1-2.3c7.6-4.8,26.8-10.8,36.9-15.1C-9.6,120.6,5,113.1,17.4,110.8z"/>
	<path fill="#609644" d="M-12.7,185.3c-0.4-0.3-0.8-0.5-1.2-0.9c-8.3-6-11.7-9.6-18.5-15.3c-2.2-1.8-5-4.6-6.9-6.5
		c-6.4-6.7-12.8-12.9-18.7-19.8c-0.9-1-0.6-1.9,0.1-2.3c7.6-4.8,26.8-10.8,36.9-15.1c11.3-4.8,25.9-12.3,38.3-14.5
		c0.5-0.1,1.1-0.2,1.7-0.2c-1.1,0.4-2,0.8-2.9,1.2L-17.1,126c-10.2,4.9-25,10.5-33.3,16c3,5.8,21.9,23.4,28.7,29.3l9.2,7.3
		c11.2,8.6,16.9,12.7,29.3,20l6.9,4c-1.3-0.3-2.5-0.6-3.6-0.9c-9.9-3.1-21.6-9-30.6-15.1c-0.6-0.4-1.2-0.8-1.8-1.2L-12.7,185.3z
		 M139.2,231.3L139.2,231.3c-0.2-0.3-0.4-0.6-0.6-0.9c-1.2-1.9-9.4-14-11.6-17.6c-3.2-5.2-9.7-10.5-16-12.5
		c-5.9-1.8-8.8-1.6-13.8-1.1l0,0c-1.7,0.2-3.5,0.4-5.4,0.6l-0.1,0h-0.1c-0.2,0-0.4,0-0.6,0.1h0.1l-0.1,0l11-3.5
		c14.1-3.3,23.6,9.7,30.1,20.1c1.7,2.7,3.7,6.6,5.2,10.1C138.1,228.4,138.7,229.7,139.2,231.3L139.2,231.3z"/>
	<path fill="#609644" d="M-22.8,152.9c1,1.4,22.3,13.7,25.1,15.4c24.4,14,29.2,25.6,58.3,22c7.6-0.9,29.1-4.3,34.3-6.6
		c-3.5-2-37.2-9.2-57.5-19.5c-8.4-4.3-16-9.2-25.7-12.2C0.4,148.5-11.4,151.1-22.8,152.9z"/>
	<path fill="#FFFFFF" d="M350.5,239.7c3.4,11,28.3,89.3,31.1,100.4c0.3,1,0,1.4-0.6,1.6c-4.7,1-13.7,2.2-17.6,2.8
		c-5.1,0.8-6.5-0.9-7.5-3.2c-2.7-6-5.2-11.8-8.4-17.8L346,321c-3,0.3-11.9,1.5-15.8,2c-1.3,0.2-1.9,0.5-2.1,1.9
		c-0.8,5.4-1.3,16.9-2.5,23.8c-0.3,1.7-1.2,2.1-2.3,2.3c-5.8,1-18,2.8-21,3.5c-1.8,0.4-2.9,0-2.9-1.5c-0.5-15.7-1.6-93.9-1.8-108
		c0-2.4,1.5-3.3,3.2-3.6l22.4-3.4c9.7-1.6,15.8-2.6,19.5-3.4C347.7,233.7,348.9,234.2,350.5,239.7z M30,315.4L11.5,318l3.1-25.4
		c0.3-2.1,0.6-2.6,2.1-3.1c0.8-0.3,1.9-0.5,2.9-0.4c2.2,0.2,1.9,0.5,2.8,2.4c2.2,5.2,5.9,16.1,8,22.7
		C30.5,314.8,30.7,315.3,30,315.4z M50.6,382.8c0.4,1.2,1.6,2.9,5.8,2.3c7.5-1.1,16.8-2.3,24.2-3.1c2.5-0.3,4.6-1.5,3.2-5.4
		c-7.4-19.7-44.3-128-53.5-151.5c-0.7-1.8-2-1.6-3.2-1.5c-7.9,0.9-26.1,1.8-32.9,2.6c-1,0.1-2.2,0.4-2.4,2.8
		c-5.3,48.1-10.8,106-16.1,160.2c-0.1,0.8,0.1,1.2,0.3,1.3l5.1,1.9c3.9-0.5,15.6-1.8,21.3-2.6c1.8-0.3,2.7-1.3,3-3
		c1.4-8.5,5.4-28.1,6.5-37.4c0.2-1.7,0.4-2.6,2-2.9l21.6-3.5C39.2,352.8,47.2,373.1,50.6,382.8z M-121,214.9
		c6.2-1.2,71.2-10,85.2-11.7c2.5-0.3,3.5,0.5,3.8,2.6c0.5,3.4,3.8,26.9,5,34.3c0.2,1.4,0.1,2.9-1.9,3.4c-8.8,1.9-34,5.3-45.4,7.8
		c-1.5,0.3-1.6,0.9-1.4,2.2c0.9,6.7,2.7,24,3.5,30.7c0.2,2.1,1.6,2.4,3,2.3c9.4-0.9,26.6-3.4,34.8-4.4c1.2-0.2,2.3,0.3,2.6,1.4
		c0.7,3.6,3.5,21.1,4.4,27.4c0.2,1.7-0.1,2.6-1.9,2.9c-7.5,1.2-33.6,4-38.3,4.5c0.2,9.6,5.3,69.7,5.6,74.7c0.1,1.8-0.5,2.3-3,2.7
		c-6.9,1.1-22,2.6-28.1,3.2l-4.5-0.3c-1-0.1-2.5-0.8-2.6-1.5c-2.9-17.4-10-72-12.4-90.2l-11.3-80.5c-0.2-1.8-0.6-5-0.8-7
		C-125.1,215.4-122.1,215.1-121,214.9z M212.2,363.4c0.2,1.6-0.3,2.6-1.8,3.3c-2.2,1-14.9,2.7-21.1,3.7c-0.7,0.1-1.5,0-1.8-0.3
		l-21-23.8c-6.8-7.7-31.6-36.2-36.1-41.5c-2-2.4-2.5-3.3-3.8-3.2c-0.4,0-0.7,0.1-0.9,0.1c-1,0.3-1,0.7-1,2
		c-0.3,6.9,2.9,29.5,3.6,35.4c0.7,6,3.3,25.6,4.1,34.4c0.2,1.8-0.4,3.3-2.6,3.6c-7.6,0.9-28.7,3.6-32.4,4.2c-1.9,0.3-3-0.5-3.2-1.7
		c-3.8-24-6-49.5-9.2-73.8c-1.2-9.6-7.3-55.9-8.8-70.8c-0.3-3.4,0.4-4.1,2.9-4.4c7-1,17.3-2,24.2-3.2c6.8-1.1,12.6-0.7,16.2,2.7
		c2.2,2,7.6,7.8,9.8,10.1c6.1,6.5,16.9,17.4,23.3,23.4c2.7,2.5,5.5,6.3,7.9,8.4c0.4,0.3,1.4,0.1,1.3-0.5
		c-1.7-14.1-5.9-43.4-8.1-60.2c-0.7-4.7-1.7-12.3-2.4-17.4c-0.3-1.8,0.3-2.4,1.4-2.5c6.5-0.9,13.9-2.5,20.6-3.2
		c5.6-0.7,9.4-1.3,12.1-1.6c4.6-0.5,5.7-0.2,6,2.7C197.2,242.3,207.1,311.9,212.2,363.4z M309.1,189.8c0.7,5.4,3.7,25.4,4.6,34
		c0.2,2.1-0.1,4.1-2.3,4.2c-6.8,0.3-19.9,1.1-26.6,1.5c-2.4,0.1-3,0.8-3.1,3.1c-0.1,7.2,1,23.4,1.3,29.5c0.5,10.5,0.9,21.1,1.6,31.6
		c0.4,7,2,49,2.4,60.2c0.1,2.5-0.2,3.1-2.3,3.3c-12.8,1.1-26.5,2.6-39.3,3.8c-1.1,0.1-3.1-1.2-3.4-3.3c-2.3-17.8-9.3-112-10.1-124.3
		c-0.1-0.9-0.5-1.3-1.6-1.2c-3.3,0.3-16.4,1.4-19.6,1.7c-2.2,0.2-4.2-0.7-4.4-2c-0.7-3.6-3.8-26.5-4.9-35.9c-0.2-1.6,1-2.8,3-2.9
		c15.3-1.2,68.9-4.4,80.1-5.3l20.9-1.6C308.9,186,308.7,186.7,309.1,189.8z M323.8,294.1c3.6,3.4,7.1,5,10.4,5
		c9.2,0,11.8-13.2,8.9-13.3c-1.3,0-2.6,0.8-4.3,1.4c-3.5,1.2-6.2,1.7-9.9,1.7c-3.7,0-5.1-1.1-6.8,0C320.6,290,321.5,292,323.8,294.1
		z"/>
	<path fill="#C9C7E4" d="M323.8,294.1c3.6,3.4,7.1,5,10.4,5c5.7,0,8.9-5.1,9.8-9c0.4-0.1,0.8-0.2,1.2-0.2c0.5,0,0.9,1.1,0.9,1.8
		c0,1,0.1,2.1-1.1,5.4c-1.7,4.6-5.8,5.9-9.1,6.1c-4.8,0.2-9.9-3.9-12.4-7.7c-0.4-0.6-0.4-1.5-0.3-2
		C323.3,293.7,323.5,293.9,323.8,294.1z M350.5,239.7l0.1,0.3l-34.5,5.8c-11.8,2-11.7,0.6-11.9,8.7c-0.5,16.6-2.4,92.6-3.5,100.3
		c-0.8-0.1-1.3-0.7-1.3-1.6c-0.5-15.7-1.6-93.9-1.8-108c0-2.4,1.5-3.3,3.2-3.6l22.4-3.4c9.7-1.6,15.8-2.6,19.5-3.4
		C347.7,233.7,348.9,234.2,350.5,239.7z M-6.9,226.4C-6.9,226.4-6.9,226.4-6.9,226.4C-6.9,226.4-6.9,226.4-6.9,226.4z M-7.2,226.6
		C-7.2,226.6-7.3,226.6-7.2,226.6C-7.3,226.6-7.2,226.6-7.2,226.6z M363.5,344.5l-0.1,0c-5.1,0.8-6.5-0.9-7.5-3.2
		c-2.7-6-5.2-11.8-8.4-17.8l0.1,0.2l3.9-0.6C355,328.8,362.1,342,363.5,344.5z M30,315.4L11.5,318l2.5,3.9l18.1-4.1l-1.9-3.8
		l0.1,0.3C30.5,314.8,30.7,315.3,30,315.4z M50.6,382.8c0.4,1.2,1.6,2.9,5.8,2.3c-0.7-1.7-5.4-17.4-6.3-20.6
		c-2.1-6.9-4.5-13.9-6.5-20.5l-6.9,2C40.6,356.4,47.5,374,50.6,382.8z M-7.7,227.2c-0.3,0.4-0.5,1-0.5,1.8
		c-5.3,48.1-10.8,106-16.1,160.2c-0.1,0.8,0.1,1.2,0.3,1.3l5.1,1.9L-7.7,227.2L-7.7,227.2z M-92.8,398.7l-0.4,0.1l-4.5-0.3
		c-1-0.1-2.5-0.8-2.6-1.5c-2.9-17.4-10-72-12.4-90.2l-11.3-80.5c-0.2-1.8-0.6-5-0.8-7c-0.2-2.3,0.8-3.3,1.9-3.8
		c-0.1,0-0.1,0.1-0.2,0.1c1.9,14.7,5.2,31.2,7.5,46C-113.7,273.7-94.2,392.6-92.8,398.7z M96.8,381.3c-1.4,0-2.2-0.7-2.4-1.8
		c-3.8-24-6-49.5-9.2-73.8c-1.2-9.6-7.3-55.9-8.8-70.8c-0.3-3.4,0.4-4.1,2.9-4.4c7-1,17.3-2,24.2-3.2c6.8-1.1,12.6-0.7,16.2,2.7
		l-39.9,5.5c-0.5,4.1,11,96.7,12.6,108.6C93.9,355.8,95.5,369.8,96.8,381.3z M160.5,271.8L160.5,271.8L160.5,271.8L160.5,271.8z
		 M160.9,272.1c0.5,0.1,1.1-0.1,1.1-0.6c-1.7-14.1-5.9-43.4-8.1-60.2c-0.7-4.7-1.7-12.3-2.4-17.4c-0.3-1.8,0.3-2.4,1.4-2.5
		c6.5-0.9,13.9-2.5,20.6-3.2c5.6-0.7,9.4-1.3,12.1-1.6c4.6-0.5,5.7-0.2,6,2.7l0.3,2.6l-34.6,2.4l8.4,81L160.9,272.1z M245.5,360.9
		h-0.2c-1.1,0.1-3.1-1.2-3.4-3.3c-2.2-17-8.6-103.1-9.9-122l4.8-0.8L245.5,360.9z M213,233.6l-2.3,0.2c-2.2,0.2-4.2-0.7-4.4-2
		c-0.7-3.6-3.8-26.5-4.9-35.9c-0.2-1.6,1-2.8,3-2.9c15.3-1.2,68.9-4.4,80.1-5.3l20.9-1.6c3.1-0.1,3.3,0.5,3.6,2.9l-50.4,3.8
		c-7.8,0.7-37.5,2.6-48.5,3.6c-2,0.1-2.3,0.7-2,2.3L213,233.6z"/>
	<path fill="#2D3092" d="M409.8,329.3c0.5,0,1-0.1,1.2-0.3c0.3-0.2,0.4-0.5,0.4-1c0-0.9-0.6-1.3-1.7-1.3h-1.6v2.6H409.8z
		 M409.6,339.2c-1.4,0-2.7-0.3-3.9-0.7c-1.2-0.5-2.2-1.2-3-2c-0.8-0.9-1.5-1.9-2-3c-0.5-1.2-0.7-2.5-0.7-3.9c0-1.4,0.2-2.7,0.7-3.9
		c0.5-1.2,1.2-2.2,2-3c0.8-0.9,1.8-1.5,3-2c1.2-0.5,2.4-0.7,3.8-0.7c1.4,0,2.7,0.3,3.9,0.7c1.2,0.5,2.2,1.2,3,2c0.8,0.9,1.5,1.9,2,3
		c0.5,1.2,0.7,2.5,0.7,3.9c0,1.4-0.2,2.7-0.7,3.9c-0.5,1.2-1.1,2.2-2,3.1c-0.9,0.9-1.8,1.6-3,2C412.2,339,411,339.2,409.6,339.2z
		 M409.6,337.5c1.2,0,2.2-0.2,3.1-0.6c1-0.4,1.8-1,2.4-1.6c0.7-0.7,1.2-1.5,1.6-2.5c0.4-1,0.5-2,0.5-3.2s-0.2-2.2-0.6-3.2
		c-0.4-1-0.9-1.8-1.6-2.5c-0.7-0.7-1.5-1.2-2.4-1.6c-1-0.4-2-0.6-3.1-0.6c-1.2,0-2.2,0.2-3.1,0.6c-1,0.4-1.8,1-2.4,1.6
		c-0.7,0.7-1.2,1.6-1.6,2.5c-0.3,1-0.5,2-0.5,3.2s0.2,2.2,0.6,3.2c0.4,1,0.9,1.8,1.6,2.5c0.7,0.7,1.5,1.2,2.4,1.6
		C407.4,337.3,408.5,337.5,409.6,337.5z M414.1,333.7c0,0,0,0.1-0.1,0.2c-0.1,0.1-0.2,0.2-0.3,0.3c-0.1,0.1-0.3,0.2-0.5,0.3
		c-0.2,0.1-0.4,0.1-0.7,0.1s-0.5-0.1-0.8-0.2c-0.3-0.1-0.5-0.4-0.8-0.8l-1.8-2.5h-1v2.2c0,0.8-0.4,1.2-1.2,1.2h-0.4
		c-0.4,0-0.7-0.1-0.9-0.4c-0.2-0.3-0.3-0.6-0.3-1.1v-7.1c0-1,0.5-1.5,1.4-1.5h3.1c1.4,0,2.4,0.3,3.1,0.8c0.7,0.5,1.1,1.4,1.1,2.4
		c0,0.8-0.2,1.4-0.6,1.9c-0.4,0.5-1,0.8-1.7,1L414.1,333.7z"/>
</g>
</svg>
